<svg width="512" height="512" viewBox="0 0 48 48" fill="none" xmlns="http://www.w3.org/2000/svg">
  <defs>
    <linearGradient id="grad" x1="4" y1="4" x2="44" y2="44" gradientUnits="userSpaceOnUse">
      <stop offset="0%" stop-color="#52d486" />
      <stop offset="100%" stop-color="#008849" />
    </linearGradient>
  </defs>

  <!-- Hexagonal shield -->
  <path
    d="M 24 2 L 42 12 C 44.5 13.2 46 15.8 46 18.5 L 46 29.5 C 46 32.2 44.5 34.8 42 36 L 24 46 L 6 36 C 3.5 34.8 2 32.2 2 29.5 L 2 18.5 C 2 15.8 3.5 13.2 6 12 Z"
    fill="url(#grad)"
  />

  <!-- H glyph -->
  <path
    d="M 13 12 L 19 12 L 19 20.5 L 29 20.5 L 29 12 L 35 12 L 35 36 L 29 36 L 29 27.5 L 19 27.5 L 19 36 L 13 36 Z"
    fill="#020904"
  />

  <!-- Scan tip -->
  <path
    d="M 35 21.5 L 40 24 L 35 26.5 Z"
    fill="#020904"
  />

  <!-- Left block -->
  <rect
    x="8" y="21.5" width="5" height="5" rx="0.5"
    fill="#020904"
  />
</svg>
